<svg xmlns="http://www.w3.org/2000/svg" width="1400" height="715" viewBox="0 0 1400 715" font-family="Helvetica, Arial, sans-serif">
<defs><marker id="arrow" viewBox="0 0 10 10" refX="9" refY="5" markerWidth="8" markerHeight="8" orient="auto-start-reverse"><path d="M0,0 L10,5 L0,10 z" fill="#333"/></marker></defs>
<rect width="1400" height="715" fill="#ffffff"/>
<text x="700" y="48" text-anchor="middle" font-size="26" font-weight="bold" fill="#232f3e">AWS Cost Waste Finder - architecture</text>
<rect x="30" y="90" width="300" height="600" rx="10" fill="#ffffff" stroke="#999999" stroke-width="2" stroke-dasharray="8 5"/><text x="44" y="116" font-size="15" font-weight="bold" fill="#333">Your computer</text>
<rect x="380" y="90" width="460" height="600" rx="10" fill="#fafafa" stroke="#666666" stroke-width="2" stroke-dasharray="8 5"/><text x="394" y="116" font-size="15" font-weight="bold" fill="#333">cwf (Docker container or pipx)</text>
<rect x="890" y="90" width="480" height="600" rx="10" fill="#ffffff" stroke="#ff9900" stroke-width="2" stroke-dasharray="8 5"/><text x="904" y="116" font-size="15" font-weight="bold" fill="#333">AWS account (read-only IAM user or role)</text>
<line x1="300" y1="195.0" x2="420" y2="180.0" stroke="#333" stroke-width="1.6" marker-end="url(#arrow)"/>
<rect x="341.6" y="177.5" width="36.8" height="18" fill="#ffffff"/><text x="360.0" y="191.5" text-anchor="middle" font-size="12" fill="#555">Scan</text>
<line x1="300" y1="325.0" x2="420" y2="180.0" stroke="#333" stroke-width="1.6" marker-end="url(#arrow)"/>
<line x1="300" y1="455.0" x2="420" y2="290.0" stroke="#333" stroke-width="1.6" marker-end="url(#arrow)"/>
<rect x="316.4" y="362.5" width="87.2" height="18" fill="#ffffff"/><text x="360.0" y="376.5" text-anchor="middle" font-size="12" fill="#555">credentials</text>
<line x1="610.0" y1="210" x2="610.0" y2="260" stroke="#333" stroke-width="1.6" marker-end="url(#arrow)"/>
<line x1="610.0" y1="320" x2="610.0" y2="360" stroke="#333" stroke-width="1.6" marker-end="url(#arrow)"/>
<line x1="610.0" y1="460" x2="610.0" y2="500" stroke="#333" stroke-width="1.6" marker-end="url(#arrow)"/>
<rect x="577.2" y="470.0" width="65.6" height="18" fill="#ffffff"/><text x="610.0" y="484.0" text-anchor="middle" font-size="12" fill="#555">findings</text>
<line x1="610.0" y1="560" x2="610.0" y2="600" stroke="#333" stroke-width="1.6" marker-end="url(#arrow)"/>
<line x1="420" y1="630.0" x2="300" y2="615.0" stroke="#333" stroke-width="1.6" marker-end="url(#arrow)"/>
<rect x="312.8" y="612.5" width="94.4" height="18" fill="#ffffff"/><text x="360.0" y="626.5" text-anchor="middle" font-size="12" fill="#555">Download PDF</text>
<line x1="800" y1="410.0" x2="920" y2="266.0" stroke="#333" stroke-width="1.6" marker-end="url(#arrow)"/>
<rect x="823.6" y="328.0" width="72.8" height="18" fill="#ffffff"/><text x="860.0" y="342.0" text-anchor="middle" font-size="12" fill="#555">read-only</text>
<line x1="800" y1="410.0" x2="920" y2="358.0" stroke="#333" stroke-width="1.6" marker-end="url(#arrow)"/>
<line x1="800" y1="410.0" x2="920" y2="450.0" stroke="#333" stroke-width="1.6" marker-end="url(#arrow)"/>
<line x1="800" y1="530.0" x2="920" y2="530.0" stroke="#333" stroke-width="1.6" marker-end="url(#arrow)"/>
<line x1="800" y1="180.0" x2="920" y2="180.0" stroke="#333" stroke-width="1.6" marker-end="url(#arrow)"/>
<rect x="820.0" y="170.0" width="80.0" height="18" fill="#ffffff"/><text x="860.0" y="184.0" text-anchor="middle" font-size="12" fill="#555">--role-arn</text>
<rect x="60" y="150" width="240" height="90" rx="8" fill="#dae8fc" stroke="#6c8ebf" stroke-width="1.6"/>
<text x="180.0" y="182.0" text-anchor="middle" font-size="14" font-weight="bold" fill="#1a1a1a">Browser</text>
<text x="180.0" y="200.0" text-anchor="middle" font-size="12" fill="#1a1a1a">http://localhost:8080</text>
<text x="180.0" y="218.0" text-anchor="middle" font-size="12" fill="#1a1a1a">Company name + Scan</text>
<rect x="60" y="290" width="240" height="70" rx="8" fill="#dae8fc" stroke="#6c8ebf" stroke-width="1.6"/>
<text x="180.0" y="321.0" text-anchor="middle" font-size="14" font-weight="bold" fill="#1a1a1a">Terminal</text>
<text x="180.0" y="339.0" text-anchor="middle" font-size="12" fill="#1a1a1a">cwf scan --all-regions</text>
<rect x="60" y="410" width="240" height="90" rx="8" fill="#fff2cc" stroke="#d6b656" stroke-width="1.6"/>
<text x="180.0" y="442.0" text-anchor="middle" font-size="14" font-weight="bold" fill="#1a1a1a">.env</text>
<text x="180.0" y="460.0" text-anchor="middle" font-size="12" fill="#1a1a1a">AWS access key + secret</text>
<text x="180.0" y="478.0" text-anchor="middle" font-size="12" fill="#1a1a1a">(never in the image or Git)</text>
<rect x="60" y="570" width="240" height="90" rx="8" fill="#d5e8d4" stroke="#82b366" stroke-width="1.6"/>
<text x="180.0" y="602.0" text-anchor="middle" font-size="14" font-weight="bold" fill="#1a1a1a">Reports</text>
<text x="180.0" y="620.0" text-anchor="middle" font-size="12" fill="#1a1a1a">PDF  ·  web page</text>
<text x="180.0" y="638.0" text-anchor="middle" font-size="12" fill="#1a1a1a">Markdown · CSV · JSON · HTML</text>
<rect x="420" y="150" width="380" height="60" rx="8" fill="#dae8fc" stroke="#6c8ebf" stroke-width="1.6"/>
<text x="610.0" y="176.0" text-anchor="middle" font-size="14" font-weight="bold" fill="#1a1a1a">Web page / CLI</text>
<text x="610.0" y="194.0" text-anchor="middle" font-size="12" fill="#1a1a1a">web.py · cli.py</text>
<rect x="420" y="260" width="380" height="60" rx="8" fill="#e1d5e7" stroke="#9673a6" stroke-width="1.6"/>
<text x="610.0" y="286.0" text-anchor="middle" font-size="14" font-weight="bold" fill="#1a1a1a">Scanner</text>
<text x="610.0" y="304.0" text-anchor="middle" font-size="12" fill="#1a1a1a">all enabled regions in parallel (8 at a time)</text>
<rect x="420" y="360" width="380" height="100" rx="8" fill="#e1d5e7" stroke="#9673a6" stroke-width="1.6"/>
<text x="610.0" y="388.0" text-anchor="middle" font-size="14" font-weight="bold" fill="#1a1a1a">8 waste checks</text>
<text x="610.0" y="406.0" text-anchor="middle" font-size="12" fill="#1a1a1a">unattached EBS · old snapshots · unused Elastic IPs</text>
<text x="610.0" y="424.0" text-anchor="middle" font-size="12" fill="#1a1a1a">gp2 → gp3 · idle EC2 · idle NAT Gateway</text>
<text x="610.0" y="442.0" text-anchor="middle" font-size="12" fill="#1a1a1a">idle load balancer · stopped EC2</text>
<rect x="420" y="500" width="380" height="60" rx="8" fill="#ffe6cc" stroke="#d79b00" stroke-width="1.6"/>
<text x="610.0" y="526.0" text-anchor="middle" font-size="14" font-weight="bold" fill="#1a1a1a">Pricing</text>
<text x="610.0" y="544.0" text-anchor="middle" font-size="12" fill="#1a1a1a">monthly cost per finding (cached)</text>
<rect x="420" y="600" width="380" height="60" rx="8" fill="#d5e8d4" stroke="#82b366" stroke-width="1.6"/>
<text x="610.0" y="626.0" text-anchor="middle" font-size="14" font-weight="bold" fill="#1a1a1a">Report builder</text>
<text x="610.0" y="644.0" text-anchor="middle" font-size="12" fill="#1a1a1a">sorted by savings · total · PDF</text>
<rect x="920" y="150" width="420" height="60" rx="8" fill="#f5f5f5" stroke="#666666" stroke-width="1.6"/>
<text x="1130.0" y="176.0" text-anchor="middle" font-size="14" font-weight="bold" fill="#1a1a1a">STS (optional)</text>
<text x="1130.0" y="194.0" text-anchor="middle" font-size="12" fill="#1a1a1a">AssumeRole into a client&#x27;s read-only role</text>
<rect x="920" y="228" width="420" height="76" rx="8" fill="#ffe6cc" stroke="#d79b00" stroke-width="1.6"/>
<text x="1130.0" y="253.0" text-anchor="middle" font-size="14" font-weight="bold" fill="#1a1a1a">EC2 / EBS</text>
<text x="1130.0" y="271.0" text-anchor="middle" font-size="12" fill="#1a1a1a">Describe instances, volumes,</text>
<text x="1130.0" y="289.0" text-anchor="middle" font-size="12" fill="#1a1a1a">snapshots, images, addresses, NAT</text>
<rect x="920" y="320" width="420" height="76" rx="8" fill="#ffe6cc" stroke="#d79b00" stroke-width="1.6"/>
<text x="1130.0" y="345.0" text-anchor="middle" font-size="14" font-weight="bold" fill="#1a1a1a">Elastic Load Balancing</text>
<text x="1130.0" y="363.0" text-anchor="middle" font-size="12" fill="#1a1a1a">Describe load balancers,</text>
<text x="1130.0" y="381.0" text-anchor="middle" font-size="12" fill="#1a1a1a">target groups, target health</text>
<rect x="920" y="412" width="420" height="76" rx="8" fill="#ffe6cc" stroke="#d79b00" stroke-width="1.6"/>
<text x="1130.0" y="437.0" text-anchor="middle" font-size="14" font-weight="bold" fill="#1a1a1a">CloudWatch</text>
<text x="1130.0" y="455.0" text-anchor="middle" font-size="12" fill="#1a1a1a">GetMetricStatistics (14 days CPU,</text>
<text x="1130.0" y="473.0" text-anchor="middle" font-size="12" fill="#1a1a1a">network, NAT bytes, requests)</text>
<rect x="920" y="500" width="420" height="60" rx="8" fill="#f5f5f5" stroke="#666666" stroke-width="1.6"/>
<text x="1130.0" y="526.0" text-anchor="middle" font-size="14" font-weight="bold" fill="#1a1a1a">AWS Pricing API (us-east-1)</text>
<text x="1130.0" y="544.0" text-anchor="middle" font-size="12" fill="#1a1a1a">GetProducts: on-demand USD prices</text>
<rect x="920" y="590" width="420" height="76" rx="8" fill="#f8cecc" stroke="#b85450" stroke-width="1.6"/>
<text x="1130.0" y="615.0" text-anchor="middle" font-size="14" font-weight="bold" fill="#1a1a1a">Never used</text>
<text x="1130.0" y="633.0" text-anchor="middle" font-size="12" fill="#1a1a1a">no create / modify / delete</text>
<text x="1130.0" y="651.0" text-anchor="middle" font-size="12" fill="#1a1a1a">no Cost Explorer (no per-call charge)</text>
</svg>